<svg xmlns="http://www.w3.org/2000/svg" width="74.843" height="79.826" viewBox="0 0 74.843 79.826">
  <path id="Path_31" data-name="Path 31" d="M186.7,45.049h5.89V30.081H186.7a31.923,31.923,0,0,0-3.939-9.52l4.161-4.163L176.337,5.816l-4.165,4.159a31.877,31.877,0,0,0-9.521-3.939V.146H147.684v5.89a31.866,31.866,0,0,0-9.521,3.939L134,5.813,123.418,16.4l4.162,4.165a31.86,31.86,0,0,0-3.939,9.52h-5.895V45.048h5.891a31.939,31.939,0,0,0,3.939,9.521l-4.161,4.164L134,69.313l3.82-3.821a6.3,6.3,0,0,0-.077.758,6.228,6.228,0,0,0,2.921,5.263,6.2,6.2,0,0,0,5.811,8.459h17.461a6.244,6.244,0,0,0,6.237-6.238,6.155,6.155,0,0,0-.427-2.221,5.781,5.781,0,0,0,2.854-5.935l3.734,3.735,10.583-10.582-4.161-4.164A31.827,31.827,0,0,0,186.7,45.049Zm-22.76,29.936H146.475a1.248,1.248,0,0,1,0-2.5h17.464a1.248,1.248,0,0,1,0,2.5Zm2.5-7.484H143.983a1.248,1.248,0,1,1,0-2.5h22.451a1.248,1.248,0,1,1,0,2.5ZM157.7,44.591a7.482,7.482,0,1,0-4.988,0V60.017h-4.988V53.393l-1.245-.72a17.462,17.462,0,1,1,17.458,0l-1.245.72v6.624H157.7V44.591Zm-2.494-4.53a2.5,2.5,0,1,1,2.494-2.5A2.5,2.5,0,0,1,155.207,40.061Zm26.987,2.08a27.036,27.036,0,0,1-4.673,11.3L176.3,55.16l3.565,3.572-3.528,3.529-3.572-3.573-1.719,1.224c-.457.325-.955.649-1.488.971a6.1,6.1,0,0,0-1.876-.742v-3.93a22.454,22.454,0,1,0-24.947,0v3.933a6.08,6.08,0,0,0-1.914.766c-.545-.33-1.058-.658-1.526-.994l-1.721-1.224L134,62.262l-3.527-3.529,3.568-3.572-1.225-1.717a27.063,27.063,0,0,1-4.674-11.3l-.354-2.08h-5.053v-4.99h5.053l.352-2.08a27.05,27.05,0,0,1,4.675-11.3l1.222-1.716L130.471,16.4,134,12.871l3.572,3.567,1.714-1.222a27.064,27.064,0,0,1,11.306-4.675l2.08-.354V5.134h4.992v5.053l2.078.351a27.045,27.045,0,0,1,11.3,4.675l1.717,1.223,3.572-3.568,3.529,3.528L176.3,19.968l1.223,1.717a27.048,27.048,0,0,1,4.676,11.3l.353,2.083H187.6v4.99h-5.054Z" transform="translate(-117.746 -0.146)" fill="#00a1ed"/>
</svg>
