<svg xmlns="http://www.w3.org/2000/svg" width="64" height="63.866" viewBox="0 0 64 63.866">
  <g id="Group_27" data-name="Group 27" transform="translate(-0.001 -0.516)">
    <path id="Path_41" data-name="Path 41" d="M63.855,30.242a3.141,3.141,0,0,0-3.087-3.165A4.051,4.051,0,0,1,57,24.021a20.459,20.459,0,0,0-1.06-2.635,20.465,20.465,0,0,0-1.079-2.153,4.233,4.233,0,0,1,.2-4.962,3.171,3.171,0,0,0-.388-4.459l-2.187-2a3.185,3.185,0,0,0-4.476.006,4.243,4.243,0,0,1-4.928.655A19.456,19.456,0,0,0,40.833,7.6a19.334,19.334,0,0,0-2.708-.815,4.052,4.052,0,0,1-3.383-3.472A3.136,3.136,0,0,0,31.327.521L28.351.657A3.212,3.212,0,0,0,25.2,3.881a4.172,4.172,0,0,1-2.738,3.976L21.08,8.5a19.4,19.4,0,0,0-2.152,1.08,4.118,4.118,0,0,1-4.8-.046,3.089,3.089,0,0,0-4.294.539l-2,2.2a3.086,3.086,0,0,0-.149,4.323,4.105,4.105,0,0,1,.481,4.774A17.757,17.757,0,0,0,7.287,23.6l-.52,1.481A4.269,4.269,0,0,1,2.99,28.266,3.216,3.216,0,0,0,0,31.7L.14,34.658A3.175,3.175,0,0,0,3.3,37.813,4.115,4.115,0,0,1,7.167,40.87a19.178,19.178,0,0,0,1.013,2.48,21.346,21.346,0,0,0,1.079,2.158,4.241,4.241,0,0,1-.2,4.968,3.178,3.178,0,0,0,.4,4.459l2.189,1.993a3.171,3.171,0,0,0,4.47-.007,4.227,4.227,0,0,1,4.932-.65,18.185,18.185,0,0,0,2.247.882,16.988,16.988,0,0,0,2.568.78,4.116,4.116,0,0,1,3.383,3.575,3.192,3.192,0,0,0,3.437,2.87l2.958-.143a3.232,3.232,0,0,0,3.157-3.28A4.26,4.26,0,0,1,41.622,56.9l1.416-.653a17.674,17.674,0,0,0,2.154-1.076,4.229,4.229,0,0,1,4.969.2,3.174,3.174,0,0,0,4.457-.39l2-2.191a3.17,3.17,0,0,0-.01-4.476,4.248,4.248,0,0,1-.652-4.932,17.29,17.29,0,0,0,.882-2.241l.51-1.423A4.169,4.169,0,0,1,61.06,36.63,3.211,3.211,0,0,0,64,33.2ZM32,53.984A21.531,21.531,0,1,1,53.525,32.452,21.536,21.536,0,0,1,32,53.984Z" transform="translate(0)" fill="#ec1c24"/>
    <path id="Path_42" data-name="Path 42" d="M47.314,26.716H25.527A3.534,3.534,0,0,0,22,30.245v14.9a3.536,3.536,0,0,0,3.532,3.522H47.3a3.531,3.531,0,0,0,3.535-3.522v-14.9A3.529,3.529,0,0,0,47.314,26.716Zm.415,19.075a1.4,1.4,0,0,1-1.013.438,1.423,1.423,0,0,1-.983-.389l-6.767-6.427-1.59,1.426a1.444,1.444,0,0,1-1.886,0L33.95,39.465,27.141,45.84a1.455,1.455,0,0,1-2-.066,1.417,1.417,0,0,1,.062-2l6.623-6.2-6.643-5.941a1.428,1.428,0,0,1-.115-2,1.453,1.453,0,0,1,1.994-.109l7.724,6.912a.836.836,0,0,1,.166.143l.031.033L36.425,37.9l9.328-8.374a1.45,1.45,0,0,1,1.985.1,1.417,1.417,0,0,1-.1,2l-6.562,5.886,6.6,6.276a1.365,1.365,0,0,1,.438.979A1.384,1.384,0,0,1,47.73,45.791Z" transform="translate(-4.417 -5.243)" fill="#ec1c24"/>
  </g>
</svg>
