<svg xmlns="http://www.w3.org/2000/svg" width="79.826" height="79.826" viewBox="0 0 79.826 79.826">
  <path id="Path_34" data-name="Path 34" d="M37.932-1.169A39.913,39.913,0,1,0,77.845,38.744,39.958,39.958,0,0,0,37.932-1.169ZM51.627,8.863A33.1,33.1,0,0,1,64.894,19.957l1.132,1.619H53.561l-.167-.825a59.436,59.436,0,0,0-2.515-8.979c-.206-.547-.418-1.07-.631-1.578L49.231,7.758ZM29.77,20.312a49.653,49.653,0,0,1,1.809-6.066c2.478-6.611,5.16-8.375,6.353-8.375s3.876,1.765,6.353,8.377a49.621,49.621,0,0,1,1.809,6.064l.3,1.265H29.473ZM6.648,48.872l-.219-.735a33.084,33.084,0,0,1,0-18.846l.22-.734H21.276l-.1,1.123c-.27,2.959-.408,6.009-.408,9.064,0,3.014.138,6.044.408,9.005l.1,1.123H6.648ZM24.236,68.626a33.085,33.085,0,0,1-13.266-11.1L9.839,55.911H22.3l.167.824a59.448,59.448,0,0,0,2.516,8.98c.206.548.416,1.07.629,1.579l1.024,2.438ZM25.616,10.2c-.213.508-.424,1.03-.63,1.579a59.426,59.426,0,0,0-2.515,8.977l-.167.825H9.839l1.131-1.619A33.091,33.091,0,0,1,24.236,8.864l2.4-1.106ZM46.093,57.116a50.851,50.851,0,0,1-1.809,6.127c-2.477,6.61-5.159,8.373-6.353,8.373s-3.875-1.764-6.354-8.374a50.3,50.3,0,0,1-1.808-6.127l-.3-1.264H46.391Zm1.509-9.17-.093.926H28.354l-.093-.926a93.325,93.325,0,0,1,0-18.4l.093-.925H47.509l.093.925a91.652,91.652,0,0,1,.458,9.2A91.642,91.642,0,0,1,47.6,47.946ZM64.894,57.47A33.158,33.158,0,0,1,51.627,68.627l-2.4,1.1,1.017-2.434c.212-.509.425-1.031.631-1.581a59.762,59.762,0,0,0,2.515-9.038l.167-.825H66.024Zm4.322-8.6H54.586l.1-1.124c.27-2.941.409-5.969.409-9s-.139-6.065-.409-9l-.1-1.124h14.63l.219.734a32.9,32.9,0,0,1,0,18.785Z" transform="translate(1.981 1.169)" fill="#e50019"/>
</svg>
