<svg xmlns="http://www.w3.org/2000/svg" width="79.665" height="79.665" viewBox="0 0 79.665 79.665">
  <path id="Path_33" data-name="Path 33" d="M0,59.894v5.689H8.536v2.846a2.844,2.844,0,0,0,2.845,2.846h2.845V79.81h5.69V71.275h5.69V79.81H31.3V71.275h5.69V79.81h5.69V71.275h5.69V79.81h5.69V71.275h5.69V79.81h5.689V71.275h2.846a2.845,2.845,0,0,0,2.846-2.846V65.583h8.535V59.894H71.13V54.2h8.535v-5.69H71.13v-5.69h8.535v-5.69H71.13v-5.69h8.535v-5.69H71.13v-5.69h8.535v-5.69H71.13V11.529a2.844,2.844,0,0,0-2.846-2.845H65.438V.145H59.749V8.68h-5.69V.145h-5.69V8.68h-5.69V.145h-5.69V8.68H31.3V.145h-5.69V8.68h-5.69V.145h-5.69V8.68H11.384a2.843,2.843,0,0,0-2.845,2.845V14.37H0v5.69H8.536v5.69H0v5.69H8.536v5.69H0v5.69H8.536v5.69H0V54.2H8.536v5.69H0ZM25.606,48.513a2.845,2.845,0,1,1,2.845,2.845A2.849,2.849,0,0,1,25.606,48.513ZM31.3,56.524a8.528,8.528,0,0,0,5.167-5.167H54.059V65.583H31.3Zm34.141,9.059H59.749V48.513A2.846,2.846,0,0,0,56.9,45.667H36.464A8.515,8.515,0,1,0,25.606,56.525v9.059H14.226V31.441H31.82a8.486,8.486,0,0,0,16.024,0H56.9A2.845,2.845,0,0,0,59.749,28.6V14.371h5.689ZM36.987,28.6a2.845,2.845,0,1,1,2.845,2.845A2.847,2.847,0,0,1,36.987,28.6ZM54.059,14.371v11.38H47.845a8.486,8.486,0,0,0-16.024,0H14.226V14.371H54.059Z" transform="translate(0 -0.145)" fill="#76187e"/>
</svg>
