<svg id="minus" xmlns="http://www.w3.org/2000/svg" width="40" height="40" viewBox="0 0 40 40">
  <g id="Group_25" data-name="Group 25">
    <path id="Path_36" data-name="Path 36" d="M20,3A17,17,0,1,1,3,20,17.019,17.019,0,0,1,20,3m0-3A20,20,0,1,0,40,20,20,20,0,0,0,20,0Z" fill="#e50019"/>
  </g>
  <path id="Path_37" data-name="Path 37" d="M12.294,22.327A2.327,2.327,0,0,1,9.967,20h0a2.327,2.327,0,0,1,2.327-2.327H27.706A2.328,2.328,0,0,1,30.033,20h0a2.328,2.328,0,0,1-2.327,2.327Z" fill="#e50019"/>
</svg>