<svg xmlns="http://www.w3.org/2000/svg" xmlns:xlink="http://www.w3.org/1999/xlink" width="64" height="62.943" viewBox="0 0 64 62.943">
  <defs>
    <clipPath id="clip-path">
      <rect id="Rectangle_18" data-name="Rectangle 18" width="29.446" height="29.521" transform="translate(29.207 33.015) rotate(-172.715)"/>
    </clipPath>
  </defs>
  <g id="Group_34" data-name="Group 34" transform="translate(-90.181 0)">
    <path id="Path_43" data-name="Path 43" d="M152.137,36.993a4.419,4.419,0,0,1-2.658-4.383l-.024-1.625a19.837,19.837,0,0,0-.117-2.5,4.4,4.4,0,0,1,2.277-4.642,3.307,3.307,0,0,0,1.5-4.4l-1.242-2.824a3.3,3.3,0,0,0-4.259-1.868,4.405,4.405,0,0,1-4.96-1.455,19.891,19.891,0,0,0-1.756-1.776l-1.144-1.088a4.344,4.344,0,0,1-1.38-4.823,3.314,3.314,0,0,0-2.025-4.229L133.481.258a3.277,3.277,0,0,0-4.312,1.608,4.188,4.188,0,0,1-4.488,2.3,19.95,19.95,0,0,0-2.945-.1,22.424,22.424,0,0,0-2.5.122A4.394,4.394,0,0,1,114.6,1.911a3.316,3.316,0,0,0-4.4-1.5l-2.819,1.238A3.325,3.325,0,0,0,105.5,5.913a4.391,4.391,0,0,1-1.455,4.953,20.59,20.59,0,0,0-1.774,1.765,18.779,18.779,0,0,0-1.908,2.227,4.214,4.214,0,0,1-4.732,1.761A3.256,3.256,0,0,0,91.548,18.7l-1.122,2.891a3.337,3.337,0,0,0,1.74,4.349A4.329,4.329,0,0,1,94.8,30.211l.021,1.575a20.646,20.646,0,0,0,.125,2.5,4.282,4.282,0,0,1-2.058,4.541,3.216,3.216,0,0,0-1.294,4.312l1.243,2.825a3.207,3.207,0,0,0,4.048,1.958,4.281,4.281,0,0,1,4.745,1.553,18.638,18.638,0,0,0,1.753,1.779l1.184,1.121a4.407,4.407,0,0,1,1.444,4.921,3.361,3.361,0,0,0,2.012,4.287l2.869,1.111a3.3,3.3,0,0,0,4.33-1.683,4.281,4.281,0,0,1,4.531-2.388,20.552,20.552,0,0,0,2.791.08,21.976,21.976,0,0,0,2.5-.117,4.4,4.4,0,0,1,4.634,2.275,3.3,3.3,0,0,0,4.4,1.5l2.822-1.238a3.305,3.305,0,0,0,1.868-4.26,4.4,4.4,0,0,1,1.463-4.951A21.531,21.531,0,0,0,142,50.137a18.409,18.409,0,0,0,1.831-2.117,4.28,4.28,0,0,1,4.817-1.72,3.309,3.309,0,0,0,4.172-2.054l1.115-2.876A3.36,3.36,0,0,0,152.137,36.993Zm-30.025,16.6a22.379,22.379,0,1,1,22.374-22.382A22.383,22.383,0,0,1,122.112,53.591Z" transform="translate(0 0)" fill="#00adee"/>
    <g id="Group_33" data-name="Group 33" transform="translate(105.641 14.702)">
      <g id="Group_32" data-name="Group 32">
        <g id="Group_31" data-name="Group 31">
          <g id="Group_28" data-name="Group 28" clip-path="url(#clip-path)">
            <path id="Path_44" data-name="Path 44" d="M133.795,39.248a2.875,2.875,0,0,0-1.959-1.218,2.965,2.965,0,0,0-2.23.676L127.42,40.4c-.145-.107-.3-.206-.442-.3-.207-.139-.407-.273-.571-.4a21.36,21.36,0,0,1-4.475-5.262,12.759,12.759,0,0,1-1.328-2.836c.564-.392,1.1-.82,1.611-1.221.191-.152.395-.311.585-.459a2.833,2.833,0,0,0,.538-4.254l-1.461-1.9c-.164-.21-.334-.437-.5-.659-.32-.428-.655-.883-1.011-1.294a2.928,2.928,0,0,0-1.942-1.162,2.966,2.966,0,0,0-2.209.635c-.013,0-.013,0-.015.008l-2.365,1.838a4.579,4.579,0,0,0-1.7,2.695,10.981,10.981,0,0,0,.2,4.669,26.856,26.856,0,0,0,3.706,8.454,29.2,29.2,0,0,0,8.679,8.783,15.031,15.031,0,0,0,5.211,2.29,3.734,3.734,0,0,0,.383.063,4.664,4.664,0,0,0,3.746-1.066c.008-.018.026-.018.031-.032A15.177,15.177,0,0,1,135.312,48c.3-.217.6-.448.9-.683a3.088,3.088,0,0,0,1.2-2.01,2.972,2.972,0,0,0-.676-2.238Zm1.374,6.758c-.005,0-.005.008,0,0-.269.235-.551.435-.848.663a15.2,15.2,0,0,0-1.346,1.073,2.979,2.979,0,0,1-2.442.686c-.084-.01-.188-.032-.28-.048a13.415,13.415,0,0,1-4.613-2.053,27.384,27.384,0,0,1-8.172-8.273,25.017,25.017,0,0,1-3.485-7.944,8.745,8.745,0,0,1-.2-3.941,2.873,2.873,0,0,1,1.085-1.722l2.366-1.829a1.409,1.409,0,0,1,.99-.314,1.308,1.308,0,0,1,.843.549.023.023,0,0,1,.018.018c.333.4.645.807.973,1.238.158.218.331.448.5.674l1.465,1.9a1.179,1.179,0,0,1-.243,1.9c-.2.163-.4.31-.6.462-.59.46-1.142.891-1.738,1.305-.011.014-.028.018-.03.023a1.264,1.264,0,0,0-.5,1.355.135.135,0,0,0,.015.059,13.7,13.7,0,0,0,1.567,3.5l.012.01a22.711,22.711,0,0,0,4.831,5.666,7.234,7.234,0,0,0,.7.514,5.2,5.2,0,0,1,.562.4c.018.014.05.038.068.055a1.318,1.318,0,0,0,.591.225,1.34,1.34,0,0,0,.994-.3l2.37-1.835a1.38,1.38,0,0,1,.988-.346,1.3,1.3,0,0,1,.832.56.015.015,0,0,1,0,.013l2.961,3.838a1.217,1.217,0,0,1-.242,1.916Zm0,0" transform="translate(-109.326 -18.191)" fill="#00adee"/>
          </g>
          <g id="Group_29" data-name="Group 29" clip-path="url(#clip-path)">
            <path id="Path_45" data-name="Path 45" d="M130.968,28.162a8.008,8.008,0,0,1,5.626,7.275.83.83,0,0,0,.731.8,1,1,0,0,0,.143.007.847.847,0,0,0,.806-.877,9.658,9.658,0,0,0-6.808-8.8.842.842,0,0,0-1.045.553.827.827,0,0,0,.548,1.041Zm0,0" transform="translate(-112.364 -19.167)" fill="#00adee"/>
          </g>
          <g id="Group_30" data-name="Group 30" clip-path="url(#clip-path)">
            <path id="Path_46" data-name="Path 46" d="M143.761,34.764a15.92,15.92,0,0,0-11.21-14.5.842.842,0,0,0-.483,1.614,14.17,14.17,0,0,1,10.013,12.95.841.841,0,0,0,.739.787,1.107,1.107,0,0,0,.144.006.826.826,0,0,0,.8-.858Zm0,0" transform="translate(-112.544 -18.127)" fill="#00adee"/>
          </g>
        </g>
      </g>
      <path id="Path_47" data-name="Path 47" d="M122.614,26.121l.514,1.962-2.594,2.6-.748,2.368,6.924,7.718,1.843.524,3.517-2.253,4.787,5.945-1.845,2.6-4.677,1.9-8.592-4.445-5.3-7.235-3.753-9.03L114.075,24l3.984-2.144,1.9,1.157Z" transform="translate(-109.445 -18.395)" fill="#00adee"/>
    </g>
  </g>
</svg>
