<svg id="plus" xmlns="http://www.w3.org/2000/svg" width="40" height="40" viewBox="0 0 40 40">
  <g id="Group_26" data-name="Group 26">
    <path id="Path_38" data-name="Path 38" d="M20,3A17,17,0,1,1,3,20,17.019,17.019,0,0,1,20,3m0-3A20,20,0,1,0,40,20,20,20,0,0,0,20,0Z" fill="#00a1ed"/>
  </g>
  <path id="Path_39" data-name="Path 39" d="M22.327,27.706A2.327,2.327,0,0,1,20,30.033h0a2.327,2.327,0,0,1-2.327-2.327V12.294A2.327,2.327,0,0,1,20,9.967h0a2.327,2.327,0,0,1,2.327,2.327Z" fill="#00a1ed"/>
  <path id="Path_40" data-name="Path 40" d="M12.294,22.327A2.327,2.327,0,0,1,9.967,20h0a2.327,2.327,0,0,1,2.327-2.327H27.706A2.328,2.328,0,0,1,30.033,20h0a2.328,2.328,0,0,1-2.327,2.327Z" fill="#00a1ed"/>
</svg>
